HIERARCHY
ROOT Hips
{
	OFFSET -3.958830 18.904000 13.208200
	CHANNELS 6 Xposition Yposition Zposition Zrotation Yrotation Xrotation 
	JOINT LHipJoint
	{
		OFFSET 0.000000 0.000000 0.000000
		CHANNELS 3 Zrotation Yrotation Xrotation
		JOINT LeftUpLeg
		{
			OFFSET 1.800000 -1.400000 0.085000
			CHANNELS 3 Zrotation Yrotation Xrotation
			JOINT LeftLeg
			{
				OFFSET 2.215000 -6.000000 0.000000
				CHANNELS 3 Zrotation Yrotation Xrotation
				JOINT LeftFoot
				{
					OFFSET 2.500000 -6.900000 0.000000
					CHANNELS 3 Zrotation Yrotation Xrotation
					JOINT LeftToeBase
					{
						OFFSET 0.200000 -0.500000 1.950000
						CHANNELS 3 Zrotation Yrotation Xrotation
						End Site
						{
							OFFSET 0.000000 0.000000 0.000000
						}
					}
				}
			}
		}
	}
	JOINT RHipJoint
	{
		OFFSET 0.000000 0.000000 0.000000
		CHANNELS 3 Zrotation Yrotation Xrotation
		JOINT RightUpLeg
		{
			OFFSET -1.800000 -1.400000 0.085000
			CHANNELS 3 Zrotation Yrotation Xrotation
			JOINT RightLeg
			{
				OFFSET -2.215000 -6.000000 0.000000
				CHANNELS 3 Zrotation Yrotation Xrotation
				JOINT RightFoot
				{
					OFFSET -2.500000 -6.900000 0.000000
					CHANNELS 3 Zrotation Yrotation Xrotation
					JOINT RightToeBase
					{
						OFFSET -0.200000 -0.500000 1.950000
						CHANNELS 3 Zrotation Yrotation Xrotation
						End Site
						{
							OFFSET 0.000000 0.000000 0.000000
						}
					}
				}
			}
		}
	}
	JOINT LowerBack
	{
		OFFSET 0.000000 0.000000 0.000000
		CHANNELS 3 Zrotation Yrotation Xrotation
		JOINT Spine
		{
			OFFSET -0.087000 1.940000 -0.288900
			CHANNELS 3 Zrotation Yrotation Xrotation
			JOINT Spine1
			{
				OFFSET 0.000000 1.950000 0.060000
				CHANNELS 3 Zrotation Yrotation Xrotation
				JOINT Neck
				{
					OFFSET 0.000000 0.000000 0.000000
					CHANNELS 3 Zrotation Yrotation Xrotation
					JOINT Neck1
					{
						OFFSET 0.000000 1.600000 0.340000
						CHANNELS 3 Zrotation Yrotation Xrotation
						JOINT Head
						{
							OFFSET 0.000000 1.667000 -0.240000
							CHANNELS 3 Zrotation Yrotation Xrotation
							End Site
							{
								OFFSET 0.000000 0.000000 0.000000
							}
						}
					}
				}
				JOINT LeftShoulder
				{
					OFFSET 0.000000 0.000000 0.000000
					CHANNELS 3 Zrotation Yrotation Xrotation
					JOINT LeftArm
					{
						OFFSET 2.700000 1.550000 -0.730000
						CHANNELS 3 Zrotation Yrotation Xrotation
						JOINT LeftForeArm
						{
							OFFSET 5.450000 0.000000 0.000000
							CHANNELS 3 Zrotation Yrotation Xrotation
							JOINT LeftHand
							{
								OFFSET 3.450000 0.000000 0.000000
								CHANNELS 3 Zrotation Yrotation Xrotation
								JOINT LeftHandIndex1
								{
									OFFSET 0.750000 0.000000 0.000000
									CHANNELS 3 Zrotation Yrotation Xrotation
									End Site
									{
										OFFSET 0.000000 0.000000 0.000000
									}
								}
							}
						}
					}
				}
				JOINT RightShoulder
				{
					OFFSET 0.000000 0.000000 0.000000
					CHANNELS 3 Zrotation Yrotation Xrotation
					JOINT RightArm
					{
						OFFSET -2.700000 1.550000 -0.730000
						CHANNELS 3 Zrotation Yrotation Xrotation
						JOINT RightForeArm
						{
							OFFSET -5.450000 0.000000 0.000000
							CHANNELS 3 Zrotation Yrotation Xrotation
							JOINT RightHand
							{
								OFFSET -3.450000 0.000000 0.000000
								CHANNELS 3 Zrotation Yrotation Xrotation
								JOINT RightHandIndex1
								{
									OFFSET -0.750000 0.000000 0.000000
									CHANNELS 3 Zrotation Yrotation Xrotation
									End Site
									{
										OFFSET 0.000000 0.000000 0.000000
									}
								}
							}
						}
					}
				}
			}
		}
	}
}
MOTION
Frames: 14
Frame Time: 0.016667
1.039440 16.952330 -1.673260 -0.882151 4.457500 -7.363962 -15.638333 14.125890 3.796399 -2.141454 2.291832 5.011964 -7.574309 5.338247 3.077992 -0.611667 5.476681 3.266250 0.383860 -0.365180 0.310260 17.722022 -9.950489 3.107918 -3.430175 2.104011 -22.817663 4.162591 -3.087180 3.130625 -0.274075 -1.892478 3.982631 -0.193580 0.674810 0.495740 -2.242504 -4.239472 -8.644165 2.462997 -0.548500 23.680933 0.690304 0.648142 -4.806567 3.513613 0.339269 -12.245158 -4.565767 0.544169 48.557738 -5.175410 -0.362350 -13.288900 -21.629201 -11.034095 3.553863 14.824812 7.890032 1.626387 8.566752 -1.162100 -1.553135 -4.068497 2.185018 1.319160 0.237170 0.034250 0.404730 15.728846 11.996831 8.923862 -14.522302 -13.871284 -0.828912 -8.219278 -0.119772 0.322237 1.861278 -0.963224 -0.549390 0.577120 0.174230 -0.381350 
1.039490 16.952580 -1.673230 -0.882127 4.448815 -7.360485 -15.638418 14.125709 3.796469 -2.145686 2.292758 5.009730 -7.563454 5.335311 3.070546 -0.612252 5.474100 3.266781 0.383800 -0.364200 0.309380 17.721864 -9.950445 3.108452 -3.430847 2.104136 -22.814506 4.170024 -3.086967 3.121254 -0.273723 -1.892727 3.983997 -0.192930 0.674310 0.494220 -2.241978 -4.238834 -8.644825 2.457027 -0.544588 23.679336 0.693366 0.651732 -4.816422 3.512825 0.355063 -12.243886 -4.535642 0.535656 48.578377 -5.188130 -0.352330 -13.286250 -21.652624 -11.044223 3.555024 14.846284 7.911547 1.629848 8.576867 -1.168308 -1.551198 -4.068048 2.184773 1.318680 0.237210 0.033790 0.404930 15.753885 11.994822 8.922135 -14.522090 -13.853489 -0.836058 -8.282022 -0.139941 0.324908 1.861278 -0.962777 -0.549650 0.577810 0.174240 -0.381620 
1.039430 16.952940 -1.673140 -0.873765 4.440005 -7.347938 -15.638876 14.124981 3.796419 -2.165333 2.293190 4.998445 -7.541527 5.329386 3.068833 -0.611158 5.467455 3.268214 0.385500 -0.361050 0.310110 17.721285 -9.950750 3.109061 -3.442567 2.103271 -22.822018 4.189832 -3.087594 3.117599 -0.273975 -1.893247 3.984629 -0.191820 0.671810 0.493640 -2.240281 -4.236552 -8.645298 2.429662 -0.535100 23.665828 0.704141 0.651983 -4.820706 3.513411 0.384352 -12.244319 -4.476918 0.514015 48.596956 -5.217620 -0.332230 -13.274950 -21.683229 -11.062382 3.567435 14.854185 7.961370 1.631980 8.634511 -1.176796 -1.545541 -4.066302 2.187152 1.317210 0.236720 0.034700 0.405490 15.783723 11.995144 8.914850 -14.544268 -13.833472 -0.838428 -8.313196 -0.162725 0.324922 1.862407 -0.964167 -0.547890 0.576150 0.171980 -0.381470 
1.039010 16.953460 -1.673110 -0.848196 4.422785 -7.341164 -15.640289 14.124287 3.796922 -2.199299 2.297058 4.995072 -7.515252 5.323035 3.072303 -0.607248 5.457488 3.269986 0.389810 -0.354070 0.312890 17.719727 -9.951061 3.109101 -3.471629 2.095936 -22.819274 4.220588 -3.088260 3.103142 -0.275995 -1.894405 3.983885 -0.190100 0.666790 0.493830 -2.235678 -4.234853 -8.645640 2.361560 -0.510674 23.664126 0.731848 0.654448 -4.834809 3.513991 0.418204 -12.244899 -4.412847 0.488851 48.641095 -5.227740 -0.312870 -13.298420 -21.714170 -11.077523 3.583758 14.843140 8.021458 1.628953 8.740873 -1.196963 -1.535993 -4.062045 2.192247 1.315210 0.234620 0.037900 0.406270 15.818147 11.996643 8.902044 -14.587236 -13.816532 -0.834312 -8.317903 -0.166528 0.322732 1.864939 -0.967127 -0.543270 0.572360 0.167070 -0.380320 
1.038250 16.954000 -1.672950 -0.828691 4.401563 -7.336050 -15.642693 14.123973 3.797540 -2.224961 2.301026 5.000095 -7.479252 5.313236 3.060872 -0.599840 5.442761 3.272432 0.397070 -0.342160 0.318070 17.717310 -9.950574 3.109356 -3.491884 2.088840 -22.805737 4.254576 -3.086411 3.081379 -0.279108 -1.894783 3.983020 -0.187120 0.658300 0.493910 -2.228307 -4.234835 -8.646295 2.279706 -0.475511 23.669587 0.779714 0.662965 -4.857681 3.518016 0.461028 -12.241698 -4.333720 0.445383 48.694434 -5.237620 -0.296320 -13.356780 -21.754147 -11.088992 3.600694 14.803810 8.077175 1.616104 8.913169 -1.229081 -1.520385 -4.055258 2.199791 1.311570 0.230880 0.043310 0.407110 15.857997 11.996780 8.882729 -14.655800 -13.815697 -0.819100 -8.301455 -0.147805 0.317860 1.869052 -0.972148 -0.535430 0.566240 0.158660 -0.378180 
1.037470 16.954530 -1.673000 -0.816863 4.370729 -7.346396 -15.644670 14.124328 3.797794 -2.235541 2.303517 5.014287 -7.442006 5.304626 3.054618 -0.592521 5.429232 3.274791 0.405520 -0.329040 0.324360 17.715196 -9.950201 3.109762 -3.505477 2.081119 -22.772202 4.290977 -3.084436 3.049979 -0.283343 -1.895330 3.982369 -0.183290 0.649250 0.493850 -2.221815 -4.235526 -8.646902 2.209811 -0.441893 23.709253 0.813846 0.676432 -4.894681 3.526216 0.504578 -12.234617 -4.253106 0.398640 48.750856 -5.238900 -0.283650 -13.469090 -21.800037 -11.091289 3.612898 14.753434 8.125882 1.599872 9.136196 -1.257998 -1.503705 -4.048054 2.206125 1.309110 0.226440 0.049860 0.408650 15.893867 11.991270 8.859686 -14.723985 -13.816145 -0.801980 -8.266353 -0.108239 0.312723 1.872423 -0.976776 -0.527920 0.561030 0.149170 -0.376250 
1.036260 16.955020 -1.673090 -0.787363 4.335751 -7.354840 -15.647191 14.124314 3.798031 -2.263807 2.308338 5.028230 -7.398235 5.295226 3.056375 -0.588472 5.417584 3.277223 0.413320 -0.317900 0.329350 17.712736 -9.949315 3.109614 -3.540503 2.069562 -22.740382 4.343714 -3.086388 3.012745 -0.288397 -1.897228 3.981313 -0.180110 0.642460 0.493860 -2.213987 -4.237147 -8.646479 2.105250 -0.399721 23.746029 0.860392 0.687594 -4.913883 3.526633 0.535747 -12.229082 -4.194898 0.376636 48.800228 -5.200340 -0.270100 -13.629220 -21.822844 -11.089899 3.627386 14.706536 8.184682 1.591698 9.309846 -1.295270 -1.491918 -4.040621 2.211486 1.309680 0.221950 0.055730 0.410950 15.924642 11.987315 8.837180 -14.784547 -13.815336 -0.788546 -8.215901 -0.052241 0.308587 1.873310 -0.979859 -0.522680 0.558080 0.141710 -0.374960 
1.034570 16.955260 -1.672890 -0.757907 4.292943 -7.350523 -15.650176 14.123331 3.797608 -2.288994 2.311838 5.030345 -7.368257 5.287180 3.056251 -0.584371 5.407261 3.279734 0.418500 -0.309190 0.332490 17.710187 -9.947774 3.109867 -3.565482 2.062776 -22.724932 4.391362 -3.088410 2.980831 -0.292681 -1.899155 3.978926 -0.178700 0.638500 0.494930 -2.205058 -4.237748 -8.645484 1.988056 -0.347705 23.754696 0.921367 0.701769 -4.912527 3.524614 0.565724 -12.227633 -4.133609 0.358837 48.821456 -5.163440 -0.252940 -13.748780 -21.825404 -11.086511 3.645743 14.643999 8.238055 1.583095 9.461376 -1.329713 -1.481843 -4.035006 2.216698 1.309630 0.218820 0.060710 0.412510 15.940960 11.981501 8.819587 -14.822333 -13.824093 -0.774329 -8.158720 0.014259 0.303784 1.875014 -0.982681 -0.517810 0.555180 0.136150 -0.372340 
1.032790 16.955770 -1.672710 -0.733715 4.244185 -7.356820 -15.652696 14.122647 3.797607 -2.301226 2.314867 5.040102 -7.356760 5.283448 3.055702 -0.579717 5.399307 3.280798 0.424570 -0.300340 0.336130 17.707954 -9.946436 3.110103 -3.582810 2.057022 -22.699820 4.435295 -3.089276 2.951116 -0.296777 -1.900280 3.977861 -0.176250 0.632280 0.495470 -2.197145 -4.238506 -8.645123 1.881503 -0.298466 23.782359 0.969494 0.718945 -4.924947 3.526027 0.592696 -12.229822 -4.080943 0.349313 48.864458 -5.126500 -0.229990 -13.864410 -21.837506 -11.080062 3.663296 14.567322 8.295638 1.572284 9.664830 -1.369213 -1.470026 -4.029850 2.222211 1.309440 0.215210 0.065630 0.413980 15.959443 11.977055 8.805019 -14.852517 -13.841349 -0.758566 -8.098861 0.086576 0.301093 1.875353 -0.985873 -0.512750 0.551670 0.130320 -0.371440 
1.031190 16.956240 -1.672640 -0.703227 4.188982 -7.362730 -15.654942 14.121847 3.797769 -2.327754 2.319370 5.046328 -7.345400 5.280940 3.064598 -0.576857 5.393573 3.281756 0.428630 -0.294390 0.338320 17.706024 -9.945215 3.110074 -3.605590 2.050875 -22.682828 4.477477 -3.092069 2.925135 -0.299576 -1.903136 3.976284 -0.175160 0.629330 0.496580 -2.189984 -4.239086 -8.644289 1.775445 -0.250349 23.816142 1.007383 0.736008 -4.954288 3.528798 0.611342 -12.226526 -4.036332 0.352701 48.872541 -5.098650 -0.200990 -13.928090 -21.848141 -11.068536 3.673633 14.515909 8.354464 1.568106 9.822570 -1.414968 -1.461432 -4.026183 2.227487 1.309370 0.213490 0.068530 0.415150 15.972917 11.973709 8.788340 -14.888442 -13.854913 -0.741963 -8.019609 0.174597 0.296020 1.874664 -0.989054 -0.509210 0.548700 0.126430 -0.370190 
1.029640 16.956630 -1.672430 -0.670986 4.134932 -7.369015 -15.657006 14.121473 3.798140 -2.360543 2.323448 5.049661 -7.337319 5.279699 3.083480 -0.574023 5.389804 3.282501 0.432560 -0.289520 0.339250 17.704186 -9.944202 3.109776 -3.630299 2.043560 -22.663753 4.513718 -3.094096 2.900608 -0.302251 -1.906534 3.974736 -0.173590 0.627170 0.498420 -2.183286 -4.240632 -8.643392 1.671417 -0.207786 23.847761 1.045351 0.748772 -4.991978 3.529529 0.610068 -12.224218 -4.029870 0.380848 48.878657 -5.044100 -0.176720 -13.945740 -21.851302 -11.051338 3.683514 14.459264 8.406957 1.565740 9.954672 -1.443512 -1.454604 -4.023105 2.233350 1.309230 0.212310 0.071080 0.417720 15.984970 11.978913 8.770964 -14.941684 -13.873580 -0.722495 -7.917036 0.273054 0.290695 1.872734 -0.993292 -0.506270 0.545740 0.122700 -0.368990 
1.028270 16.956930 -1.672100 -0.645436 4.074195 -7.376034 -15.658803 14.121058 3.798359 -2.389025 2.328100 5.053516 -7.326052 5.277553 3.097819 -0.572666 5.386419 3.282953 0.434440 -0.286030 0.338340 17.702716 -9.943341 3.109502 -3.642175 2.038503 -22.644865 4.538303 -3.096303 2.880307 -0.304314 -1.910089 3.972601 -0.172750 0.626660 0.499970 -2.177333 -4.241677 -8.642487 1.581540 -0.168781 23.872641 1.076784 0.761080 -5.022467 3.534856 0.610170 -12.227997 -4.019129 0.411771 48.888484 -5.005440 -0.145500 -13.953150 -21.840757 -11.032345 3.696575 14.387485 8.448515 1.562222 10.076380 -1.449623 -1.448684 -4.021086 2.237603 1.309610 0.211660 0.073100 0.419830 15.972251 11.981553 8.757397 -14.969028 -13.882957 -0.706636 -7.802505 0.387529 0.284918 1.871020 -0.996366 -0.504620 0.543560 0.120530 -0.367110 
1.026760 16.957210 -1.671810 -0.628757 4.011045 -7.391622 -15.660293 14.121713 3.798497 -2.402817 2.330963 5.060887 -7.324477 5.279004 3.117869 -0.573157 5.384822 3.282119 0.437560 -0.281870 0.337680 17.701568 -9.942444 3.108808 -3.638942 2.035603 -22.619451 4.547811 -3.096634 2.870181 -0.305081 -1.911845 3.973808 -0.169900 0.624300 0.499230 -2.172249 -4.244955 -8.641234 1.505502 -0.136290 23.907179 1.109120 0.771994 -5.038753 3.535675 0.588590 -12.233471 -4.053798 0.464182 48.900417 -4.939750 -0.119080 -13.997800 -21.822059 -11.000852 3.704294 14.297614 8.482330 1.559147 10.191610 -1.460361 -1.443084 -4.018827 2.240028 1.310750 0.210540 0.074030 0.421830 15.960607 11.983933 8.751166 -14.969455 -13.868948 -0.702625 -7.760357 0.467678 0.283873 1.868110 -0.998315 -0.504320 0.542490 0.118270 -0.367620 
1.025280 16.957670 -1.671400 -0.616785 3.949770 -7.407647 -15.660978 14.122467 3.799067 -2.413495 2.335964 5.073687 -7.318022 5.279070 3.127763 -0.573005 5.382010 3.281240 0.438830 -0.278170 0.335530 17.700982 -9.941978 3.108752 -3.628139 2.033624 -22.591769 4.551172 -3.096146 2.854971 -0.306107 -1.913284 3.973729 -0.168180 0.622310 0.498300 -2.169207 -4.247227 -8.641320 1.449029 -0.112046 23.945267 1.122828 0.782266 -5.081874 3.539751 0.575381 -12.246345 -4.076622 0.517295 48.945532 -4.901510 -0.077280 -14.028810 -21.812850 -10.972750 3.707192 14.237840 8.521847 1.558160 10.281046 -1.478235 -1.437243 -4.016511 2.242547 1.311270 0.209230 0.075120 0.422790 15.950295 11.978301 8.756179 -14.919844 -13.837958 -0.710247 -7.810096 0.524343 0.287205 1.868004 -0.999187 -0.503570 0.541320 0.117410 -0.367120 
